<?xml version="1.0"?>
<svg xmlns="http://www.w3.org/2000/svg" xmlns:xlink="http://www.w3.org/1999/xlink" xmlns:svgjs="http://svgjs.com/svgjs" version="1.1" width="512" height="512" x="0" y="0" viewBox="0 0 512 512" style="enable-background:new 0 0 512 512" xml:space="preserve" class=""><g><linearGradient xmlns="http://www.w3.org/2000/svg" id="SVGID_1_" gradientUnits="userSpaceOnUse" x1="74.98" x2="437.019" y1="437.019" y2="74.98"><stop offset=".0056" stop-color="#560dff"/><stop offset="1" stop-color="#73ecff"/></linearGradient><radialGradient xmlns="http://www.w3.org/2000/svg" id="SVGID_2_" cx="256" cy="312.281" gradientUnits="userSpaceOnUse" r="317.681"><stop offset="0" stop-color="#6b23ea"/><stop offset=".0252" stop-color="#672ee9" stop-opacity=".975"/><stop offset=".1399" stop-color="#5559e5" stop-opacity=".86"/><stop offset=".2602" stop-color="#467ee2" stop-opacity=".74"/><stop offset=".3849" stop-color="#3a9de0" stop-opacity=".615"/><stop offset=".5153" stop-color="#31b4de" stop-opacity=".485"/><stop offset=".654" stop-color="#2ac5dc" stop-opacity=".346"/><stop offset=".8066" stop-color="#26cfdb" stop-opacity=".193"/><stop offset="1" stop-color="#25d2db" stop-opacity="0"/></radialGradient><linearGradient xmlns="http://www.w3.org/2000/svg" id="lg1"><stop offset="0" stop-color="#3ca1ff"/><stop offset=".1082" stop-color="#47affa"/><stop offset=".5685" stop-color="#74e9e7"/><stop offset=".79" stop-color="#85ffe0"/><stop offset=".881" stop-color="#9dffe6"/><stop offset="1" stop-color="#c2fff0"/></linearGradient><linearGradient xmlns="http://www.w3.org/2000/svg" xmlns:xlink="http://www.w3.org/1999/xlink" id="SVGID_3_" gradientUnits="userSpaceOnUse" x1="-272.031" x2="400.802" xlink:href="#lg1" y1="857.116" y2="184.283"/><linearGradient xmlns="http://www.w3.org/2000/svg" xmlns:xlink="http://www.w3.org/1999/xlink" id="SVGID_4_" gradientUnits="userSpaceOnUse" x1="-162.243" x2="510.253" xlink:href="#lg1" y1="711.291" y2="38.796"/><linearGradient xmlns="http://www.w3.org/2000/svg" id="SVGID_5_" gradientUnits="userSpaceOnUse" x1="330.34" x2="330.34" y1="359.696" y2="141.778"><stop offset="0" stop-color="#25d2db" stop-opacity="0"/><stop offset=".1874" stop-color="#26cfdb" stop-opacity=".187"/><stop offset=".3397" stop-color="#2ac5dc" stop-opacity=".34"/><stop offset=".4799" stop-color="#31b4de" stop-opacity=".48"/><stop offset=".6127" stop-color="#3b9ce0" stop-opacity=".613"/><stop offset=".7403" stop-color="#477de2" stop-opacity=".74"/><stop offset=".864" stop-color="#5657e6" stop-opacity=".864"/><stop offset=".9824" stop-color="#682ae9" stop-opacity=".982"/><stop offset="1" stop-color="#6b23ea"/></linearGradient><linearGradient xmlns="http://www.w3.org/2000/svg" xmlns:xlink="http://www.w3.org/1999/xlink" id="SVGID_6_" gradientUnits="userSpaceOnUse" x1="335.675" x2="338.877" xlink:href="#lg1" y1="319.242" y2="316.04"/><linearGradient xmlns="http://www.w3.org/2000/svg" xmlns:xlink="http://www.w3.org/1999/xlink" id="SVGID_7_" gradientUnits="userSpaceOnUse" x1="-89.785" x2="561.355" xlink:href="#lg1" y1="596.049" y2="-55.091"/><linearGradient xmlns="http://www.w3.org/2000/svg" xmlns:xlink="http://www.w3.org/1999/xlink" id="SVGID_8_" gradientUnits="userSpaceOnUse" x1="-162.307" x2="719.929" xlink:href="#lg1" y1="843.712" y2="-38.523"/><linearGradient xmlns="http://www.w3.org/2000/svg" xmlns:xlink="http://www.w3.org/1999/xlink" id="SVGID_9_" gradientUnits="userSpaceOnUse" x1="-307.292" x2="575.586" xlink:href="#lg1" y1="886.034" y2="3.156"/><linearGradient xmlns="http://www.w3.org/2000/svg" xmlns:xlink="http://www.w3.org/1999/xlink" id="SVGID_10_" gradientUnits="userSpaceOnUse" x1="-210.323" x2="576.678" xlink:href="#lg1" y1="729.719" y2="-57.282"/><linearGradient xmlns="http://www.w3.org/2000/svg" id="lg2"><stop offset="0" stop-color="#c2fff0"/><stop offset=".3617" stop-color="#defff7"/><stop offset=".7568" stop-color="#f6fffd"/><stop offset="1" stop-color="#fff"/></linearGradient><linearGradient xmlns="http://www.w3.org/2000/svg" xmlns:xlink="http://www.w3.org/1999/xlink" id="SVGID_11_" gradientUnits="userSpaceOnUse" x1="218.977" x2="375.329" xlink:href="#lg2" y1="321.783" y2="165.431"/><linearGradient xmlns="http://www.w3.org/2000/svg" xmlns:xlink="http://www.w3.org/1999/xlink" id="SVGID_12_" gradientUnits="userSpaceOnUse" x1="251.318" x2="405.553" xlink:href="#lg2" y1="243.432" y2="89.196"/><linearGradient xmlns="http://www.w3.org/2000/svg" xmlns:xlink="http://www.w3.org/1999/xlink" id="SVGID_13_" gradientUnits="userSpaceOnUse" x1="189.983" x2="297.316" xlink:href="#lg2" y1="258.933" y2="151.6"/><linearGradient xmlns="http://www.w3.org/2000/svg" id="lg3"><stop offset="0" stop-color="#3ca1ff"/><stop offset=".1082" stop-color="#47affa"/><stop offset=".5685" stop-color="#74e9e7"/><stop offset=".79" stop-color="#85ffe0"/><stop offset=".8391" stop-color="#9dffe6"/><stop offset=".9423" stop-color="#dafff6"/><stop offset="1" stop-color="#fff"/></linearGradient><linearGradient xmlns="http://www.w3.org/2000/svg" xmlns:xlink="http://www.w3.org/1999/xlink" id="SVGID_14_" gradientUnits="userSpaceOnUse" x1="-4.881" x2="263.094" xlink:href="#lg3" y1="272.943" y2="4.969"/><linearGradient xmlns="http://www.w3.org/2000/svg" xmlns:xlink="http://www.w3.org/1999/xlink" id="SVGID_15_" gradientUnits="userSpaceOnUse" x1=".461" x2="268.42" xlink:href="#lg3" y1="282.639" y2="14.68"/><linearGradient xmlns="http://www.w3.org/2000/svg" xmlns:xlink="http://www.w3.org/1999/xlink" id="SVGID_16_" gradientUnits="userSpaceOnUse" x1="-17.925" x2="250.738" xlink:href="#lg3" y1="256.139" y2="-12.524"/><linearGradient xmlns="http://www.w3.org/2000/svg" xmlns:xlink="http://www.w3.org/1999/xlink" id="SVGID_17_" gradientUnits="userSpaceOnUse" x1="11.658" x2="277.228" xlink:href="#lg3" y1="292.487" y2="26.918"/><linearGradient xmlns="http://www.w3.org/2000/svg" xmlns:xlink="http://www.w3.org/1999/xlink" id="SVGID_18_" gradientUnits="userSpaceOnUse" x1="-9.224" x2="257.543" xlink:href="#lg3" y1="261.886" y2="-4.881"/><linearGradient xmlns="http://www.w3.org/2000/svg" xmlns:xlink="http://www.w3.org/1999/xlink" id="SVGID_19_" gradientUnits="userSpaceOnUse" x1="103.699" x2="359.955" xlink:href="#lg3" y1="407.838" y2="151.582"/><linearGradient xmlns="http://www.w3.org/2000/svg" xmlns:xlink="http://www.w3.org/1999/xlink" id="SVGID_20_" gradientUnits="userSpaceOnUse" x1="83.838" x2="341.15" xlink:href="#lg3" y1="381.141" y2="123.829"/><linearGradient xmlns="http://www.w3.org/2000/svg" xmlns:xlink="http://www.w3.org/1999/xlink" id="SVGID_21_" gradientUnits="userSpaceOnUse" x1="30.363" x2="294.789" xlink:href="#lg3" y1="319.161" y2="54.735"/><linearGradient xmlns="http://www.w3.org/2000/svg" xmlns:xlink="http://www.w3.org/1999/xlink" id="SVGID_22_" gradientUnits="userSpaceOnUse" x1="30.567" x2="292.282" xlink:href="#lg3" y1="311.718" y2="50.003"/><g xmlns="http://www.w3.org/2000/svg"><circle cx="256" cy="256" fill="url(#SVGID_1_)" r="256" data-original="url(#SVGID_1_)" style=""/><circle cx="256" cy="256" fill="url(#SVGID_2_)" r="256" data-original="url(#SVGID_2_)" style=""/><path d="m374.795 271.747c.015-26.293-.12-52.586-.405-78.879-44.793-.446-89.586-.645-134.378-.598-.083 72.637-.046 145.274.11 217.911 59.549-30.628 120.046-62.171 180.591-93.002-25.448.265-45.922-20.114-45.918-45.432z" fill="url(#SVGID_3_)" data-original="url(#SVGID_3_)" style=""/><path d="m338.478 271.763c.011-26.401-.084-52.802-.284-79.202-44.793-.313-89.586-.38-134.378-.2-.316 72.549-.176 145.097.42 217.646 59.363-30.254 119.734-61.641 180.213-92.534-25.447.207-45.971-20.297-45.971-45.71z" fill="url(#SVGID_4_)" data-original="url(#SVGID_4_)" style=""/><path d="m374.795 271.747c.015-26.293-.12-52.586-.405-78.879-44.793-.446-89.586-.645-134.378-.598-.083 72.637-.046 145.274.11 217.911 59.549-30.628 120.046-62.171 180.591-93.002-25.448.265-45.922-20.114-45.918-45.432z" fill="url(#SVGID_5_)" data-original="url(#SVGID_5_)" style=""/><path d="m336.012 317.69c.788.037 1.581.053 2.379.05-.793-.017-1.586-.033-2.379-.05z" fill="url(#SVGID_6_)" data-original="url(#SVGID_6_)" style=""/><path d="m292.353 271.771c.005-26.176-.038-52.351-.128-78.527-7.663-.024-15.325-.042-22.988-.052-.1-33.948-27.425-61.594-60.958-61.362-16.167.108-30.928 6.64-41.983 17.124-34.996 33.207-70.307 66.323-105.335 98.766-3.078 2.851-6.746 5.088-10.804 6.513-6.368 2.24-10.355 8.445-9.934 15.019.878 13.747 3.181 27.147 6.758 40.109 25.788 90.787 123.758 132.27 222.022 131.845 22.026-41.18 44.561-82.451 67.01-123.516-24.336-1.114-43.656-21.237-43.66-45.919z" fill="url(#SVGID_7_)" data-original="url(#SVGID_7_)" style=""/><path d="m256.073 333.606c-44.4 30.76-88.489 61.323-131.603 90.803 36.984 29.456 82.429 47.633 131.533 47.572 77.543-.034 147.109-45.773 186.07-109.509-61.783-8.815-123.818-18.63-186-28.866z" fill="url(#SVGID_8_)" data-original="url(#SVGID_8_)" style=""/><path d="m457.365 304.184c-21.431 16.985-51.931 17.474-73.085.565-2.698-2.152-6.587-2.176-9.306.009-21.376 17.179-51.864 17.406-73.091.252-2.685-2.168-6.565-2.161-9.259.017-21.304 17.235-51.793 17.243-73.091.009-2.693-2.178-6.573-2.183-9.259-.014-21.233 17.165-51.721 16.955-73.092-.233-2.719-2.187-6.608-2.162-9.306-.007-21.16 16.931-51.618 16.49-73.044-.514-3.736-2.882-9.084.62-7.848 5.093 5.181 18.779 13.035 36.641 23.06 53.239 14.027 5.3 28.038 10.611 42.027 15.921-6.624 4.953-13.227 9.883-19.808 14.784 9.718 11.35 20.524 21.789 32.206 31.104 60.819 1.371 121.638 1.768 182.458 1.191 8.363-.081 15.236-7.032 15.34-15.498.104-8.467-6.644-15.264-15.059-15.202-8.408.065-15.185-6.777-15.144-15.262s6.917-15.39 15.365-15.438c44.881-.258 89.762-.834 134.643-1.728 10.037-16.583 17.906-34.42 23.093-53.173 1.238-4.468-4.063-7.994-7.8-5.115z" fill="url(#SVGID_9_)" data-original="url(#SVGID_9_)" style=""/><path d="m204.697 364.234c-44.882-.228-89.765-.774-134.647-1.638 6.532 10.813 13.982 21.086 22.217 30.705 37.542.844 75.083 1.392 112.625 1.644 8.407.058 15.191-6.793 15.158-15.28-.034-8.487-6.905-15.389-15.353-15.431z" fill="url(#SVGID_10_)" data-original="url(#SVGID_10_)" style=""/><path d="m345.156 132.32c-15.209-.21-30.417-.369-45.626-.475 20.531 33.786 41.298 67.559 61.933 101.112.056 12.663 10.392 22.937 23.129 22.951 12.736.013 23.045-10.159 22.963-22.722-.084-13.014-.214-26.028-.392-39.042-.505-33.455-28.479-61.308-62.007-61.824z" fill="url(#SVGID_11_)" data-original="url(#SVGID_11_)" style=""/><path d="m299.531 131.844c-15.209-.106-30.417-.161-45.626-.163 20.284 33.687 40.895 67.465 61.466 101.126.031 12.714 10.363 23.026 23.1 23.036 12.736.008 23.05-10.237 22.992-22.887-.059-13.1-.15-26.201-.275-39.301-.37-33.696-28.128-61.544-61.657-61.811z" fill="url(#SVGID_12_)" data-original="url(#SVGID_12_)" style=""/><path d="m253.905 131.681c-15.209-.002-30.417.047-45.626.149 33.533-.232 60.859 27.414 60.958 61.362.019 13.182.033 26.365.042 39.547.008 12.736 10.334 23.062 23.071 23.068 12.737.003 23.055-10.292 23.021-22.999-.034-13.156-.087-26.313-.159-39.469-.234-33.862-27.776-61.64-61.307-61.658z" fill="url(#SVGID_13_)" data-original="url(#SVGID_13_)" style=""/><path d="m157.42 118.09c-.071 4.225-3.527 7.7-7.723 7.768-4.196.067-7.533-3.291-7.448-7.507s3.548-7.701 7.731-7.777c4.182-.077 7.511 3.291 7.44 7.516z" fill="url(#SVGID_14_)" data-original="url(#SVGID_14_)" style=""/><path d="m141.704 148.892c-.066 4.218-3.532 7.683-7.748 7.743-4.215.061-7.575-3.298-7.498-7.505.077-4.208 3.552-7.68 7.756-7.751 4.205-.071 7.556 3.296 7.49 7.513z" fill="url(#SVGID_15_)" data-original="url(#SVGID_15_)" style=""/><path d="m95.966 149.697c-.093 4.19-3.58 7.65-7.796 7.734-4.215.084-7.554-3.23-7.45-7.405.104-4.176 3.603-7.644 7.807-7.742 4.204-.097 7.532 3.224 7.439 7.413z" fill="url(#SVGID_16_)" data-original="url(#SVGID_16_)" style=""/><path d="m218.268 93.361c-.029 4.243-3.438 7.704-7.616 7.736s-7.53-3.372-7.485-7.612 3.457-7.711 7.619-7.747c4.162-.037 7.511 3.379 7.482 7.623z" fill="url(#SVGID_17_)" data-original="url(#SVGID_17_)" style=""/><path d="m188.381 71.668c-.063 4.237-3.483 7.716-7.642 7.779-4.158.063-7.467-3.309-7.386-7.539s3.506-7.722 7.647-7.791c4.141-.07 7.444 3.315 7.381 7.551z" fill="url(#SVGID_18_)" data-original="url(#SVGID_18_)" style=""/><path d="m400.166 119.138c.112 4.194-3.203 7.514-7.399 7.423-4.196-.092-7.673-3.571-7.772-7.776-.099-4.206 3.207-7.536 7.389-7.433 4.182.104 7.669 3.592 7.782 7.786z" fill="url(#SVGID_19_)" data-original="url(#SVGID_19_)" style=""/><path d="m369.486 103.212c.099 4.213-3.218 7.559-7.403 7.479s-7.642-3.561-7.725-7.784c-.083-4.222 3.225-7.578 7.395-7.49 4.169.09 7.634 3.582 7.733 7.795z" fill="url(#SVGID_20_)" data-original="url(#SVGID_20_)" style=""/><path d="m248.457 108.62c-.002 4.246-3.401 7.689-7.591 7.698-4.19.008-7.573-3.421-7.557-7.666.017-4.245 3.416-7.699 7.591-7.708 4.177-.009 7.559 3.431 7.557 7.676z" fill="url(#SVGID_21_)" data-original="url(#SVGID_21_)" style=""/><path d="m278.547 71.279c.027 4.244-3.323 7.665-7.482 7.65-4.158-.016-7.537-3.465-7.546-7.71s3.34-7.68 7.48-7.662c4.142.017 7.521 3.478 7.548 7.722z" fill="url(#SVGID_22_)" data-original="url(#SVGID_22_)" style=""/></g></g></svg>
